<?xml version="1.0" encoding="UTF-8" standalone="no"?>
<svg
   xmlns:dc="http://purl.org/dc/elements/1.1/"
   xmlns:cc="http://creativecommons.org/ns#"
   xmlns:rdf="http://www.w3.org/1999/02/22-rdf-syntax-ns#"
   xmlns:svg="http://www.w3.org/2000/svg"
   xmlns="http://www.w3.org/2000/svg"
   xmlns:sodipodi="http://sodipodi.sourceforge.net/DTD/sodipodi-0.dtd"
   xmlns:inkscape="http://www.inkscape.org/namespaces/inkscape"
   id="Bold"
   enable-background="new 0 0 24 24"
   height="50"
   viewBox="0 0 2.34375 2.34375"
   width="50"
   version="1.1"
   sodipodi:docname="discordi.svg"
   inkscape:version="0.92.3 (2405546, 2018-03-11)">
  <metadata
     id="metadata300">
    <rdf:RDF>
      <cc:Work
         rdf:about="">
        <dc:format>image/svg+xml</dc:format>
        <dc:type
           rdf:resource="http://purl.org/dc/dcmitype/StillImage" />
        <dc:title></dc:title>
      </cc:Work>
    </rdf:RDF>
  </metadata>
  <defs
     id="defs298" />
  <sodipodi:namedview
     pagecolor="#ffffff"
     bordercolor="#666666"
     borderopacity="1"
     objecttolerance="10"
     gridtolerance="10"
     guidetolerance="10"
     inkscape:pageopacity="0"
     inkscape:pageshadow="2"
     inkscape:window-width="1366"
     inkscape:window-height="718"
     id="namedview296"
     showgrid="false"
     inkscape:zoom="0.86132812"
     inkscape:cx="102.1678"
     inkscape:cy="-162.60421"
     inkscape:window-x="0"
     inkscape:window-y="25"
     inkscape:window-maximized="1"
     inkscape:current-layer="Bold" />
  <path
     d="M 0.34961716,2.069922 H 1.7420976 L 1.6755937,1.85459 1.8346757,1.991113 1.9804765,2.121777 2.2461015,2.34375 V 0.241699 C 2.2394609,0.111035 2.1269609,0 1.9875077,0 L 0.35010546,2.93e-4 c -0.1393555,0 -0.2524414,0.11123 -0.2524414,0.241894 v 1.585938 c 0,0.137793 0.1128906,0.241797 0.2519531,0.241797 z M 1.3796952,0.55498 l -0.00322,0.0012 0.00117,-0.0012 z M 0.63448046,0.678906 C 0.81348436,0.548633 0.97940233,0.554883 0.97940233,0.554883 l 0.013379,0.01318 c -0.21904297,0.05225 -0.31835937,0.150098 -0.31835937,0.150098 0,0 0.026563,-0.01299 0.072949,-0.03281 0.29501954,-0.116016 0.61718744,-0.107618 0.91542964,0.03926 0,0 -0.099512,-0.0915 -0.3050781,-0.150097 l 0.018164,-0.01787 c 0.028418,9.7e-5 0.1788085,0.0054 0.339746,0.123046 0,0 0.1800782,0.307618 0.1800782,0.685547 -0.00596,-0.0072 -0.1117188,0.162696 -0.3838867,0.168555 0,0 -0.046094,-0.05215 -0.078906,-0.09766 0.1591797,-0.0457 0.21875,-0.13711 0.21875,-0.13711 -0.052246,0.03291 -0.099902,0.05244 -0.1385742,0.07197 -0.059473,0.02617 -0.119043,0.03906 -0.1785156,0.05225 -0.2816407,0.0457 -0.43974604,-0.03076 -0.58916015,-0.09141 l -0.051074,-0.02598 c 0,0 0.059473,0.09141 0.21230467,0.13711 -0.040137,0.0458 -0.079883,0.09785 -0.079883,0.09785 -0.2720704,-0.0064 -0.3712891,-0.176367 -0.3712891,-0.176367 0,-0.378516 0.1790039,-0.685547 0.1790039,-0.685547 z"
     id="path289"
     inkscape:connector-curvature="0"
     style="stroke-width:0.09765625" />
  <path
     d="m 1.3972734,1.247168 c 0.069434,0 0.1259765,-0.05859 0.1259765,-0.130859 0,-0.07178 -0.05625,-0.130372 -0.1259765,-0.130372 v 2.93e-4 c -0.069141,0 -0.1257813,0.0584 -0.1259766,0.130665 0,0.07168 0.056543,0.130273 0.1259766,0.130273 z"
     id="path291"
     inkscape:connector-curvature="0"
     style="stroke-width:0.09765625" />
  <path
     d="m 0.94629683,1.247168 c 0.069434,0 0.12597657,-0.05859 0.12597657,-0.130859 0,-0.07178 -0.056152,-0.130372 -0.12558597,-0.130372 l -3.906e-4,2.93e-4 c -0.069434,0 -0.12597657,0.0584 -0.12597657,0.130665 0,0.07168 0.056543,0.130273 0.12597657,0.130273 z"
     id="path293"
     inkscape:connector-curvature="0"
     style="stroke-width:0.09765625" />
</svg>
