<?xml version="1.0" encoding="UTF-8" standalone="no"?>
<!-- Created with Inkscape (http://www.inkscape.org/) -->

<svg
   xmlns:dc="http://purl.org/dc/elements/1.1/"
   xmlns:cc="http://creativecommons.org/ns#"
   xmlns:rdf="http://www.w3.org/1999/02/22-rdf-syntax-ns#"
   xmlns:svg="http://www.w3.org/2000/svg"
   xmlns="http://www.w3.org/2000/svg"
   xmlns:sodipodi="http://sodipodi.sourceforge.net/DTD/sodipodi-0.dtd"
   xmlns:inkscape="http://www.inkscape.org/namespaces/inkscape"
   width="32"
   height="32"
   viewBox="0 0 8.4666662 8.4666669"
   version="1.1"
   id="svg8"
   inkscape:version="0.92.3 (2405546, 2018-03-11)"
   sodipodi:docname="icon.svg">
  <defs
     id="defs2" />
  <sodipodi:namedview
     id="base"
     pagecolor="#ffffff"
     bordercolor="#666666"
     borderopacity="1.0"
     inkscape:pageopacity="0"
     inkscape:pageshadow="2"
     inkscape:zoom="13.781247"
     inkscape:cx="8.2969232"
     inkscape:cy="15.999992"
     inkscape:document-units="px"
     inkscape:current-layer="layer1"
     showgrid="false"
     inkscape:window-width="1366"
     inkscape:window-height="718"
     inkscape:window-x="0"
     inkscape:window-y="25"
     inkscape:window-maximized="1"
     units="px" />
  <metadata
     id="metadata5">
    <rdf:RDF>
      <cc:Work
         rdf:about="">
        <dc:format>image/svg+xml</dc:format>
        <dc:type
           rdf:resource="http://purl.org/dc/dcmitype/StillImage" />
        <dc:title></dc:title>
      </cc:Work>
    </rdf:RDF>
  </metadata>
  <g
     inkscape:label="Layer 1"
     inkscape:groupmode="layer"
     id="layer1"
     transform="translate(0,-288.53331)">
    <g
       style="display:inline;fill:#000000"
       id="g1882"
       transform="matrix(0.02463679,0,0,0.02463679,-55.276068,254.74964)">
      <path
         inkscape:connector-curvature="0"
         style="fill:#000000;fill-opacity:1;stroke:none;stroke-width:0.16031832px;stroke-linecap:butt;stroke-linejoin:miter;stroke-opacity:1"
         d="m 2483.4782,1371.2695 c 14.7028,41.9486 -18.4086,27.8161 -24.5324,52.1269 -1.2974,-7.3185 5.6387,-10.0872 -2.4945,-16.5016 3.436,13.5517 -9.7854,12.9006 -10.6441,25.0901 0.7662,-9.1683 -2.1726,-12.2345 -5.0106,-15.4672 1.5411,17.33 -9.6757,9.1789 -8.8349,31.5776 -3.4504,-2.7123 -3.0727,-9.4999 -1.5564,-17.5 -3.1442,7.7698 -11.1808,12.5535 -7.9368,24.2221 -3.2116,-3.6022 -2.1114,-11.2158 -6.2132,-15.7085 1.9924,11.8449 -8.4812,16.6615 -6.6094,33.1145 -2.9143,-8.581 2.6248,-17.2663 -1.5276,-25.479 3.156,10.3459 -17.3725,18.1925 -15.3993,38.5665 -3.4518,-8.7967 6.5031,-16.2865 -2.0938,-27.4525 3.7724,14.3182 -12.0623,11.7204 -18.123,46.5501 -3.4829,-8.0599 8.1506,-11.9162 -1.8234,-25.6025 4.1698,14.6351 -18.7688,19.9486 -13.3734,54.5258 -4.8311,-9.445 -4.8515,-19.0158 -5.0095,-28.5827 -7.1462,12.773 -6.4539,26.5195 -4.2028,40.4595 -3.4103,-11.6292 -2.697,-18.1855 -15.8276,-23.8898 13.7978,18.0176 -0.4745,26.6004 6.5879,42.6206 -3.3792,-5.9155 -6.7699,-6.7908 -10.1583,-8.672 8.5886,19.6209 2.8825,27.0813 10.0986,36.7863 -4.1014,-2.6443 -8.7556,-8.2971 -12.4292,-14.1333 2.3413,21.9192 23.6389,25.0496 13.1719,54.3982 0,0 -10.2551,34.9805 -11.4279,48.8229 -1.173,13.8422 -0.3108,15.9391 -0.3108,15.9391 0,0 3.935,-13.3844 8.3538,-20.2263 4.4186,-6.842 9.4606,-14.5529 9.4606,-14.5529 -13.8485,-35.9924 25.0527,-68.3217 46.4318,-47.1576 -0.022,-12 -9.0702,-11.7702 -15.5119,-15.0723 12.9175,-2.2495 19.3763,-10.2269 32.1263,-2.054 -1.9678,-4.6336 -10.2203,-9.4715 -18.1293,-9.2161 13.6185,-1.4061 21.3816,-8.4472 29.1986,-15.4364 -5.8025,1.6233 -11.0689,2.8165 -14.7938,2.773 17.4538,-6.6623 18.9979,-14.2185 29.2092,-12.1313 -3.4816,-6.3786 -5.5179,-7.139 -16.7267,-3.4189 8.6823,-8.121 21.2135,-4.7217 26.2021,-16.1655 -4.9726,2.7452 -9.7088,3.5668 -14.344,3.5686 19.4792,-8.015 17.587,-18.1916 20.9118,-27.8411 -5.8181,4.0229 -8.7053,9.3466 -16.3886,9.9246 16.1767,-9.2875 10.9391,-17.7061 25.7036,-17.6763 -4.6773,-2.6997 -6.4941,-7.2957 -22.8624,-2.2445 16.7467,-6.3165 21.0236,-16.665 30.8075,-14.5045 -5.303,-9.238 -17.6375,-0.7631 -27.5306,-1.6736 29.6601,-5.0044 26.4782,-26.2045 40.5918,-23.7973 -7.7533,-5.3157 -10.5621,-2.0602 -22.9893,4.3035 19.4858,-10.8676 13.1127,-14.4851 24.8718,-18.8053 -3.0297,-1.4806 -5.3799,-3.8376 -13.2327,0.9054 11.1748,-7.4244 3.7516,-10.3093 17.9567,-13.2658 -5.2363,-4.7582 -9.1445,-1.0648 -13.318,-1.3884 7.3089,-2.7885 10.6583,-10.2565 21.0312,-8.7691 -2.4769,-1.4739 -3.3132,-3.6225 -10.4932,-3.1629 14.622,-9.6647 10.2849,-17.1188 20.2378,-23.5185 -2.6988,-2.1038 -5.814,-2.6777 -9.8105,-0.012 13.7094,-17.1058 -3.1356,-31.1138 -11.2831,-35.1959 z m -3.9219,45.6147 c -44.1532,41.9089 -106.4676,130.1862 -132.5731,204.4058 15.0598,-79.4442 66.2212,-142.8724 132.5731,-204.4058 z"
         id="path1874" />
      <path
         style="fill:#000000;stroke:none;stroke-width:0.12641992px;stroke-linecap:butt;stroke-linejoin:miter;stroke-opacity:1"
         d="m 2379.3988,1695.4501 c -9.1225,-0.016 -20.9147,0.1827 -35.9153,0.6406 -7.8103,0.4112 -15.6858,0.9899 -15.6858,0.9899 0,0 0,0 0,0 48.1002,-0.5066 69.0948,0.8568 76.0705,3.0272 0.9759,0.3599 0.2212,0.7861 -0.01,0.8983 -4.9064,2.1419 -13.6283,4.569 -18.3822,6.6399 v 0 c 0,0 -0.01,0 -0.01,0 -1.2884,0.5617 -2.2848,1.0973 -2.8321,1.5936 -0.4936,0.3449 -0.9196,0.7051 -1.1344,1.0374 -0.7419,1.1475 -0.1328,3.5624 1.0002,3.8787 0,0 0,0 0,0 3.6005,1.6092 27.8883,0.9628 103.217,-4.4026 -58.6805,2.9308 -86.3623,3.2635 -97.3932,2.1803 -0.01,0 -1.9212,-0.713 -0.4727,-1.2391 5.4948,-1.9215 13.3929,-4.2489 16.9759,-6.438 v 0 c 0,0 3.0478,-1.4149 4.0967,-4.2366 1.0492,-2.8222 -4.7018,-3.2975 -4.7018,-3.2975 v 0 c -3.862,-0.7784 -11.5346,-1.2541 -24.8283,-1.2775 z"
         id="path1878"
         inkscape:connector-curvature="0" />
    </g>
  </g>
</svg>
