<?xml version="1.0" encoding="UTF-8" standalone="no"?>
<svg
   xmlns:dc="http://purl.org/dc/elements/1.1/"
   xmlns:cc="http://creativecommons.org/ns#"
   xmlns:rdf="http://www.w3.org/1999/02/22-rdf-syntax-ns#"
   xmlns:svg="http://www.w3.org/2000/svg"
   xmlns="http://www.w3.org/2000/svg"
   xmlns:sodipodi="http://sodipodi.sourceforge.net/DTD/sodipodi-0.dtd"
   xmlns:inkscape="http://www.inkscape.org/namespaces/inkscape"
   enable-background="new 0 0 24 24"
   height="50"
   viewBox="0 0 2.34375 2.34375"
   width="50"
   version="1.1"
   id="svg480"
   sodipodi:docname="instagram.svg"
   inkscape:version="0.92.3 (2405546, 2018-03-11)">
  <metadata
     id="metadata486">
    <rdf:RDF>
      <cc:Work
         rdf:about="">
        <dc:format>image/svg+xml</dc:format>
        <dc:type
           rdf:resource="http://purl.org/dc/dcmitype/StillImage" />
        <dc:title></dc:title>
      </cc:Work>
    </rdf:RDF>
  </metadata>
  <defs
     id="defs484" />
  <sodipodi:namedview
     pagecolor="#ffffff"
     bordercolor="#666666"
     borderopacity="1"
     objecttolerance="10"
     gridtolerance="10"
     guidetolerance="10"
     inkscape:pageopacity="0"
     inkscape:pageshadow="2"
     inkscape:window-width="1366"
     inkscape:window-height="718"
     id="namedview482"
     showgrid="false"
     inkscape:zoom="0.86132812"
     inkscape:cx="102.1678"
     inkscape:cy="256"
     inkscape:window-x="0"
     inkscape:window-y="25"
     inkscape:window-maximized="1"
     inkscape:current-layer="svg480" />
  <linearGradient
     id="SVGID_1_"
     gradientTransform="matrix(0,-42.282667,-39.338667,0,-2827.136,-1089.6427)"
     gradientUnits="userSpaceOnUse"
     x1="-37.105999"
     x2="-26.555"
     y1="-72.705002"
     y2="-84.046997">
    <stop
       offset="0"
       stop-color="#fd5"
       id="stop469" />
    <stop
       offset=".5"
       stop-color="#ff543e"
       id="stop471" />
    <stop
       offset="1"
       stop-color="#c837ab"
       id="stop473" />
  </linearGradient>
  <path
     style="fill:#000000;stroke-width:0.09736606"
     d="M 0.83102895,1.8350054e-5 C 0.43186279,7.5077198e-4 0.28724236,0.02343417 0.15288222,0.1627209 -0.03076825,0.3534422 0.00681875,0.55603489 0.00681875,1.1715225 c 0,0.5111214 -0.08919699,1.0235157 0.37762187,1.1441405 C 0.53021197,2.353145 1.8218037,2.353144 1.9673803,2.3154676 2.1617421,2.2653286 2.3198811,2.1077058 2.3414985,1.8328686 2.3445185,1.7945106 2.3445185,0.5492261 2.3414009,0.5100888 2.3184198,0.21733712 2.1381774,0.0486121 1.9006782,0.01444003 1.8462453,0.00655429 1.8353419,0.00422196 1.5560686,0.00373524 1.2465054,0.00389149 1.0124681,-3.1456013e-4 0.83102895,1.844771e-5 Z M 1.3488571,0.30851486 C 1.5852821,0.3081047 1.7582883,0.31963029 1.8927884,0.45410393 2.0562822,0.617468 2.037684,0.83506265 2.037684,1.1721107 c 0,0.2539057 0.00779,0.4277829 -0.045279,0.5650555 -0.1298017,0.332959 -0.4788953,0.2977204 -0.8174704,0.2977204 -0.35094186,0 -0.68942081,0.031539 -0.81737244,-0.2977204 -0.0523881,-0.1348387 -0.0452793,-0.3432774 -0.0452793,-0.5650555 0,-0.2527373 -0.007693,-0.42924386 0.0452793,-0.56515344 C 0.4858056,0.27789239 0.82155943,0.30933488 1.1751304,0.30933488 c 0.061471,-3.13e-6 0.1192851,-7.2266e-4 0.1737267,-8.2002e-4 z m -0.00367,0.15461817 c -0.073049,1.2696e-4 -0.1551742,0.001539 -0.2473647,0.001685 v -1.9531e-4 c -0.57529526,5.8594e-4 -0.62982734,0.0114852 -0.62982734,0.70709698 0,0.6876288 0.0197643,0.7072932 0.70723644,0.7072932 0.3770384,-1e-7 0.6837686,0.044201 0.7021726,-0.3585622 0.045325,-0.99643153 -0.020878,-1.0582206 -0.53222,-1.05731679 z m 0.2905312,0.14489376 c 0.057159,0 0.1035122,0.0463436 0.1035122,0.10349181 0,0.0571482 -0.046353,0.1034917 -0.1035122,0.1034917 -0.05716,0 -0.1035033,-0.0463435 -0.1035033,-0.1034917 0,-0.0571483 0.046344,-0.10349181 0.1035033,-0.10349181 z M 1.1751306,0.72904204 c 0.244705,0 0.4429599,0.19841192 0.4429599,0.44306866 0,0.2446569 -0.1982549,0.4429708 -0.4429599,0.4429708 -0.24470503,0 -0.44305804,-0.1983139 -0.44305804,-0.4429708 0,-0.24465674 0.19835301,-0.44306866 0.44305804,-0.44306866 z m 0,0.15547374 c -0.38073878,0 -0.38015452,0.57518092 0,0.57518092 0.3807388,0 0.3802518,-0.57518092 0,-0.57518092 z"
     id="path476"
     inkscape:connector-curvature="0" />
</svg>
