<?xml version="1.0" encoding="UTF-8" standalone="no"?>
<!-- Generator: Adobe Illustrator 19.0.0, SVG Export Plug-In . SVG Version: 6.00 Build 0)  -->

<svg
   xmlns:dc="http://purl.org/dc/elements/1.1/"
   xmlns:cc="http://creativecommons.org/ns#"
   xmlns:rdf="http://www.w3.org/1999/02/22-rdf-syntax-ns#"
   xmlns:svg="http://www.w3.org/2000/svg"
   xmlns="http://www.w3.org/2000/svg"
   xmlns:sodipodi="http://sodipodi.sourceforge.net/DTD/sodipodi-0.dtd"
   xmlns:inkscape="http://www.inkscape.org/namespaces/inkscape"
   version="1.1"
   id="Layer_1"
   x="0px"
   y="0px"
   viewBox="0 0 50 50"
   xml:space="preserve"
   sodipodi:docname="linkedin.svg"
   width="50"
   height="50"
   inkscape:version="0.92.3 (2405546, 2018-03-11)"><metadata
   id="metadata627"><rdf:RDF><cc:Work
       rdf:about=""><dc:format>image/svg+xml</dc:format><dc:type
         rdf:resource="http://purl.org/dc/dcmitype/StillImage" /><dc:title></dc:title></cc:Work></rdf:RDF></metadata><defs
   id="defs625" /><sodipodi:namedview
   pagecolor="#ffffff"
   bordercolor="#666666"
   borderopacity="1"
   objecttolerance="10"
   gridtolerance="10"
   guidetolerance="10"
   inkscape:pageopacity="0"
   inkscape:pageshadow="2"
   inkscape:window-width="1366"
   inkscape:window-height="718"
   id="namedview623"
   showgrid="false"
   inkscape:zoom="8.82"
   inkscape:cx="25"
   inkscape:cy="25"
   inkscape:window-x="0"
   inkscape:window-y="25"
   inkscape:window-maximized="1"
   inkscape:current-layer="Layer_1" />
<path
   style="fill:#000000;stroke-width:0.13089006"
   d="M 45.477095,0 H 4.5229058 C 2.025,0 0,2.025 0,4.5229053 V 45.476963 C 0,47.975 2.025,50 4.5229058,50 H 45.476963 C 47.975,50 50,47.975 50,45.476963 V 4.5229053 C 50,2.025 47.975,0 45.477095,0 Z M 15.47212,43.173299 c 0,0.726963 -0.589266,1.316229 -1.31623,1.316229 H 8.5530104 c -0.7269632,0 -1.3162303,-0.589266 -1.3162303,-1.316229 V 19.686257 c 0,-0.726964 0.5892671,-1.316231 1.3162303,-1.316231 H 14.15589 c 0.726964,0 1.31623,0.589267 1.31623,1.316231 z M 11.35445,16.156021 c -2.9396595,0 -5.3227746,-2.383116 -5.3227746,-5.322775 0,-2.9396591 2.3831151,-5.3227753 5.3227746,-5.3227753 2.93966,0 5.322776,2.3831162 5.322776,5.3227753 0,2.939659 -2.382985,5.322775 -5.322776,5.322775 z m 33.398168,27.123298 c 0,0.668325 -0.541885,1.210209 -1.21021,1.210209 h -6.012304 c -0.668324,0 -1.210208,-0.541884 -1.210208,-1.210209 V 32.262565 c 0,-1.643455 0.482067,-7.201701 -4.294896,-7.201701 -3.705366,0 -4.456938,3.80445 -4.607854,5.51178 v 12.706675 c 0,0.668325 -0.541753,1.210209 -1.210209,1.210209 h -5.814921 c -0.668325,0 -1.210209,-0.541884 -1.210209,-1.210209 V 19.580235 c 0,-0.668324 0.541884,-1.210209 1.210209,-1.210209 h 5.814921 c 0.668325,0 1.210209,0.541885 1.210209,1.210209 v 2.049084 c 1.373954,-2.061911 3.415838,-3.653403 7.763351,-3.653403 9.627226,0 9.572121,8.994241 9.572121,13.936126 z"
   id="path590"
   inkscape:connector-curvature="0" />
<g
   id="g592"
   transform="translate(0,-332)">
</g>
<g
   id="g594"
   transform="translate(0,-332)">
</g>
<g
   id="g596"
   transform="translate(0,-332)">
</g>
<g
   id="g598"
   transform="translate(0,-332)">
</g>
<g
   id="g600"
   transform="translate(0,-332)">
</g>
<g
   id="g602"
   transform="translate(0,-332)">
</g>
<g
   id="g604"
   transform="translate(0,-332)">
</g>
<g
   id="g606"
   transform="translate(0,-332)">
</g>
<g
   id="g608"
   transform="translate(0,-332)">
</g>
<g
   id="g610"
   transform="translate(0,-332)">
</g>
<g
   id="g612"
   transform="translate(0,-332)">
</g>
<g
   id="g614"
   transform="translate(0,-332)">
</g>
<g
   id="g616"
   transform="translate(0,-332)">
</g>
<g
   id="g618"
   transform="translate(0,-332)">
</g>
<g
   id="g620"
   transform="translate(0,-332)">
</g>
</svg>