<?xml version="1.0" encoding="UTF-8" standalone="no"?>
<!-- Created with Inkscape (http://www.inkscape.org/) -->

<svg
   xmlns:dc="http://purl.org/dc/elements/1.1/"
   xmlns:cc="http://creativecommons.org/ns#"
   xmlns:rdf="http://www.w3.org/1999/02/22-rdf-syntax-ns#"
   xmlns:svg="http://www.w3.org/2000/svg"
   xmlns="http://www.w3.org/2000/svg"
   xmlns:sodipodi="http://sodipodi.sourceforge.net/DTD/sodipodi-0.dtd"
   xmlns:inkscape="http://www.inkscape.org/namespaces/inkscape"
   width="512"
   height="271"
   viewBox="0 0 135.46666 71.702085"
   version="1.1"
   id="svg8"
   inkscape:version="0.92.3 (2405546, 2018-03-11)"
   sodipodi:docname="logo1.svg">
  <defs
     id="defs2" />
  <sodipodi:namedview
     id="base"
     pagecolor="#232d37"
     bordercolor="#666666"
     borderopacity="1.0"
     inkscape:pageopacity="0"
     inkscape:pageshadow="2"
     inkscape:zoom="1.0399442"
     inkscape:cx="243.42492"
     inkscape:cy="104.3271"
     inkscape:document-units="px"
     inkscape:current-layer="layer11"
     showgrid="false"
     inkscape:window-width="1366"
     inkscape:window-height="718"
     inkscape:window-x="0"
     inkscape:window-y="25"
     inkscape:window-maximized="1"
     units="px"
     inkscape:lockguides="false"
     showguides="true"
     inkscape:guide-bbox="true"
     inkscape:snap-intersection-paths="false"
     inkscape:object-paths="true"
     inkscape:snap-bbox="false" />
  <metadata
     id="metadata5">
    <rdf:RDF>
      <cc:Work
         rdf:about="">
        <dc:format>image/svg+xml</dc:format>
        <dc:type
           rdf:resource="http://purl.org/dc/dcmitype/StillImage" />
        <dc:title />
      </cc:Work>
    </rdf:RDF>
  </metadata>
  <g
     inkscape:groupmode="layer"
     id="layer11"
     inkscape:label="Layer 11"
     style="display:inline"
     transform="translate(0,-118.79792)">
    <g
       id="g1887"
       transform="matrix(0.1920263,0,0,0.1920263,-579.63418,-147.72546)"
       style="fill:#000000">
      <path
         id="path1639"
         d="m 3175.6282,1388.2029 c 14.7028,41.9486 -18.4086,27.8161 -24.5324,52.1269 -1.2974,-7.3185 5.6387,-10.0872 -2.4945,-16.5016 3.436,13.5517 -9.7854,12.9006 -10.6441,25.0901 0.7662,-9.1683 -2.1726,-12.2345 -5.0106,-15.4672 1.5411,17.33 -9.6757,9.1789 -8.8349,31.5776 -3.4504,-2.7123 -3.0727,-9.4999 -1.5564,-17.5 -3.1442,7.7698 -11.1808,12.5535 -7.9368,24.2221 -3.2116,-3.6022 -2.1114,-11.2158 -6.2132,-15.7085 1.9924,11.8449 -8.4812,16.6615 -6.6094,33.1145 -2.9143,-8.581 2.6248,-17.2663 -1.5276,-25.479 3.156,10.3459 -17.3725,18.1925 -15.3993,38.5665 -3.4518,-8.7967 6.5031,-16.2865 -2.0938,-27.4525 3.7724,14.3182 -12.0623,11.7204 -18.123,46.5501 -3.4829,-8.0599 8.1506,-11.9162 -1.8234,-25.6025 4.1698,14.6351 -18.7688,19.9486 -13.3734,54.5258 -4.8311,-9.445 -4.8515,-19.0158 -5.0095,-28.5827 -7.1462,12.773 -6.4539,26.5195 -4.2028,40.4595 -3.4103,-11.6292 -2.697,-18.1855 -15.8276,-23.8898 13.7978,18.0176 -0.4745,26.6004 6.5879,42.6206 -3.3792,-5.9155 -6.7699,-6.7908 -10.1583,-8.672 8.5886,19.6209 2.8825,27.0813 10.0986,36.7863 -4.1014,-2.6443 -8.7556,-8.2971 -12.4292,-14.1333 2.3413,21.9192 23.6389,25.0496 13.1719,54.3982 0,0 -10.2551,34.9805 -11.4279,48.8229 -1.173,13.8422 -0.3108,15.9391 -0.3108,15.9391 0,0 3.935,-13.3844 8.3538,-20.2263 4.4186,-6.842 9.4606,-14.5529 9.4606,-14.5529 -13.8485,-35.9924 25.0527,-68.3217 46.4318,-47.1576 -0.022,-12 -9.0702,-11.7702 -15.5119,-15.0723 12.9175,-2.2495 19.3763,-10.2269 32.1263,-2.054 -1.9678,-4.6336 -10.2203,-9.4715 -18.1293,-9.2161 13.6185,-1.4061 21.3816,-8.4472 29.1986,-15.4364 -5.8025,1.6233 -11.0689,2.8165 -14.7938,2.773 17.4538,-6.6623 18.9979,-14.2185 29.2092,-12.1313 -3.4816,-6.3786 -5.5179,-7.139 -16.7267,-3.4189 8.6823,-8.121 21.2135,-4.7217 26.2021,-16.1655 -4.9726,2.7452 -9.7088,3.5668 -14.344,3.5686 19.4792,-8.015 17.587,-18.1916 20.9118,-27.8411 -5.8181,4.0229 -8.7053,9.3466 -16.3886,9.9246 16.1767,-9.2875 10.9391,-17.7061 25.7036,-17.6763 -4.6773,-2.6997 -6.4941,-7.2957 -22.8624,-2.2445 16.7467,-6.3165 21.0236,-16.665 30.8075,-14.5045 -5.303,-9.238 -17.6375,-0.7631 -27.5306,-1.6736 29.6601,-5.0044 26.4782,-26.2045 40.5918,-23.7973 -7.7533,-5.3157 -10.5621,-2.0602 -22.9893,4.3035 19.4858,-10.8676 13.1127,-14.4851 24.8718,-18.8053 -3.0297,-1.4806 -5.3799,-3.8376 -13.2327,0.9054 11.1748,-7.4244 3.7516,-10.3093 17.9567,-13.2658 -5.2363,-4.7582 -9.1445,-1.0648 -13.318,-1.3884 7.3089,-2.7885 10.6583,-10.2565 21.0312,-8.7691 -2.4769,-1.4739 -3.3132,-3.6225 -10.4932,-3.1629 14.622,-9.6647 10.2849,-17.1188 20.2378,-23.5185 -2.6988,-2.1038 -5.814,-2.6777 -9.8105,-0.012 13.7094,-17.1058 -3.1356,-31.1138 -11.2831,-35.1959 z m -3.9219,45.6147 c -44.1532,41.9089 -106.4676,130.1862 -132.5731,204.4058 15.0598,-79.4442 66.2212,-142.8724 132.5731,-204.4058 z"
         style="fill:#000000;fill-opacity:1;stroke:none;stroke-width:0.16031832px;stroke-linecap:butt;stroke-linejoin:miter;stroke-opacity:1"
         inkscape:connector-curvature="0" />
      <path
         id="path1831"
         d="m 3646.2893,1542.4637 c -1.2797,0.02 -2.3434,0.7875 -3.1922,2.3017 -0.9138,1.7306 -1.6973,3.5277 -2.35,5.3914 -0.5223,1.7305 -1.1753,3.5277 -1.9587,5.3914 -1.0443,1.5975 -2.0233,3.5278 -2.9371,5.7909 -3.7865,6.1236 -7.7031,12.8461 -11.7504,20.1677 -4.0474,7.3216 -8.3556,14.7098 -12.9252,22.1646 l -2.3503,3.9935 c -0.7834,1.3312 -1.4364,2.3964 -1.9584,3.1952 -0.9139,0.1331 -1.6971,0.6655 -2.3498,1.5973 -0.6596,0.6725 -0.8504,1.7274 -0.5845,3.1548 -0.6329,0.3782 -1.1959,0.994 -1.6872,1.8537 -0.9319,1.7305 -1.7307,3.5276 -2.3964,5.3914 -0.5323,1.7305 -1.198,3.5276 -1.9968,5.3914 -1.0649,1.5974 -2.0632,3.5273 -2.995,5.7903 -3.8606,6.1236 -7.8539,12.8461 -11.9806,20.1678 -4.1267,7.3216 -8.5199,14.7103 -13.1792,22.165 l -2.3961,3.9936 c -0.7987,1.3312 -1.4644,2.3959 -1.9968,3.1946 -0.9318,0.1332 -1.7306,0.666 -2.3963,1.5979 -0.7985,0.7986 -0.9319,2.1298 -0.3995,3.9935 1.0649,2.13 2.8622,2.9951 5.3914,2.5957 2.3963,-0.7987 4.6593,-3.1282 6.7892,-6.9887 l 2.3963,-4.7925 c 0.7988,-1.5974 1.5306,-2.9285 2.1963,-3.9935 1.8638,-2.9287 3.2618,-5.2582 4.1937,-6.9887 -1.8638,11.1821 -1.1983,21.033 1.9965,29.5527 1.1983,2.6624 2.9282,3.4607 5.1917,2.3957 2.396,-1.0649 3.1284,-2.8616 2.1965,-5.3909 -1.4642,-3.9937 -2.3293,-8.2535 -2.5955,-12.7796 -0.5326,-13.312 3.1943,-27.9556 11.1815,-43.9301 l 1.5979,-3.1946 c 0.5326,-0.9319 0.9316,-1.7307 1.198,-2.3963 0.3992,-0.6656 0.7321,-1.3312 0.9983,-1.9968 2.7114,-4.5191 4.2923,-8.6614 4.7495,-12.4292 2.137,-0.9641 4.1643,-3.2138 6.0814,-6.7567 0.7832,-1.5974 1.5669,-3.1945 2.3503,-4.7919 0.7832,-1.5974 1.501,-2.9291 2.1537,-3.9941 1.8281,-2.9287 3.1991,-5.2582 4.113,-6.9887 -1.8277,11.1821 -1.1753,21.033 1.9582,29.5527 1.175,2.6624 2.8726,3.4612 5.0921,2.3962 2.3501,-1.065 3.0676,-2.862 2.1538,-5.3914 -1.4362,-3.9936 -2.2845,-8.2535 -2.5456,-12.7795 -0.5223,-13.3121 3.1332,-27.9552 10.9667,-43.9297 l 1.5669,-3.1951 c 0.5223,-0.9319 0.9136,-1.7301 1.1747,-2.3957 0.3916,-0.6656 0.7186,-1.3312 0.9798,-1.9968 2.7416,-4.6593 4.3082,-8.9196 4.7,-12.7801 -0.653,-1.8637 -1.8282,-2.9284 -3.5255,-3.1947 -0.3183,-0.075 -0.625,-0.11 -0.9203,-0.1054 z m -104.0061,0.5049 c -2.6112,0.2663 -3.982,1.5311 -4.1124,3.7941 0,1.0649 0.2611,1.9964 0.7834,2.7952 0.6528,0.7987 1.6971,1.2647 3.1332,1.3978 h 0.7835 c 2.35,-0.5324 3.5253,-1.7973 3.5253,-3.7941 0,-1.9968 -1.11,-3.3943 -3.3295,-4.193 z m -207.3862,6.1185 c -0.6631,-0.01 -1.4026,0.2131 -2.2186,0.6708 -2.6111,1.3311 -4.6347,4.5259 -6.0708,9.5844 -0.5223,2.1299 -0.9792,4.1935 -1.3711,6.1903 -0.3916,1.9968 -1.1094,5.0583 -2.154,9.185 -1.0443,3.9936 -2.4156,9.385 -4.1129,16.1742 -0.5993,2.3508 -1.2589,4.7106 -1.9725,7.0781 -2.8398,4.7539 -5.6184,9.9474 -8.3362,15.5804 -0.35,-0.01 -0.6998,-0.035 -1.0496,-0.095 -0.7834,-1.4644 -2.0886,-2.13 -3.9166,-1.9968 -1.6973,0.1331 -2.8073,1.331 -3.3296,3.5941 0,0.5325 -0.065,0.9322 -0.1957,1.1984 0.2611,0.7987 0.4569,1.398 0.5876,1.7973 0.1304,0.5324 0.5223,1.1311 1.175,1.7968 0.9512,0.573 2.0196,1.0192 3.1999,1.3441 -2.1537,4.8636 -4.2685,10.0075 -6.3423,15.4455 -3.0618,4.393 -6.7893,8.7861 -11.1823,13.1791 l -4.5925,4.5925 c -2.6624,2.6624 -4.8586,4.1267 -6.5893,4.393 -2.263,0.9318 -3.2614,2.3962 -2.9951,4.393 0.2663,1.8637 1.5974,2.9953 3.9935,3.3946 2.6624,-0.2662 5.1915,-1.3977 7.5877,-3.3946 2.3962,-2.1299 4.593,-4.1267 6.5898,-5.9903 -0.2663,1.065 -0.5991,2.0633 -0.9984,2.9951 -0.3994,0.9319 -0.7322,1.9303 -0.9984,2.9952 -1.8638,0.7987 -3.7277,1.7307 -5.5914,2.7957 -1.9968,1.4643 -2.5955,3.1283 -1.7968,4.9919 0.9318,1.7306 2.3293,2.4625 4.193,2.1963 -1.7306,5.9904 -3.3944,11.8478 -4.9919,17.572 -1.5974,5.8574 -3.3946,11.9144 -5.3914,18.171 -1.9969,6.3898 -3.9272,13.2457 -5.7909,20.5672 -1.8636,7.4549 -4.6591,14.3769 -8.3865,20.7667 -1.4644,1.1981 -1.7972,2.9953 -0.9984,5.3914 0.1331,0 0.1994,0.1332 0.1994,0.3995 1.065,1.0649 2.2635,1.5973 3.5947,1.5973 1.1981,0 2.2628,-0.6656 3.1946,-1.9968 3.3281,-5.0585 6.5232,-12.5136 9.5849,-22.3645 1.3312,-4.1267 2.4628,-8.1864 3.3947,-12.1801 1.0649,-3.8605 2.3292,-8.3205 3.7935,-13.379 1.5975,-4.9255 3.3946,-10.8493 5.3914,-17.7716 1.9968,-6.9222 4.0604,-13.9107 6.1902,-20.9661 4.6593,-1.7306 9.5184,-2.8622 14.577,-3.3947 5.0586,-0.5324 9.1183,-1.1317 12.1801,-1.7973 3.1948,-0.6656 5.0588,-1.4644 5.5914,-2.3962 0.6657,-0.9319 0.9316,-1.8639 0.7985,-2.7957 -0.1331,-0.9319 -0.5987,-1.7301 -1.3972,-2.3957 -0.7988,-0.6656 -1.864,-0.9321 -3.1954,-0.7989 -4.3929,0.7987 -8.7191,1.4643 -12.9789,1.9967 -4.2598,0.5325 -8.4534,1.3313 -12.5801,2.3963 1.0649,-3.0618 2.0632,-6.0568 2.9951,-8.9855 1.0649,-3.0618 2.1965,-6.1237 3.3946,-9.1855 5.3078,-7.1202 9.5422,-14.0194 12.7098,-20.699 0.4921,-0.091 0.9805,-0.185 1.4644,-0.2837 2.0892,-0.3994 4.8961,-0.8654 8.4214,-1.3979 3.5251,-0.5324 7.964,-1.3976 13.3171,-2.5957 19.5836,-4.393 32.966,-12.7795 40.1468,-25.1597 5.3528,-9.3185 6.5929,-17.7719 3.7205,-25.3597 -1.3054,-3.7274 -3.6554,-6.8556 -7.05,-9.3849 -3.3946,-2.6624 -7.3766,-4.3264 -11.946,-4.992 -4.5696,-0.7987 -8.8127,-1.1314 -12.7296,-0.9983 -3.7862,0.1331 -7.6375,0.2658 -11.5544,0.3989 -1.9584,0.2662 -3.2636,0.9986 -3.9163,2.1968 v -0.799 c -0.7181,-2.288 -1.8069,-3.443 -3.2655,-3.4659 z m 3.0689,7.26 c 0.5223,1.7306 1.8283,2.6626 3.9171,2.7957 9.139,-0.3993 15.8629,-0.4662 20.1713,-0.2 4.1781,0.2662 7.7682,1.4647 10.771,3.5946 3.003,1.9968 4.8961,4.5923 5.6792,7.7872 1.6973,7.0554 -0.6527,14.3772 -7.05,21.965 -5.4835,6.6561 -13.6435,11.7147 -24.4798,15.1759 -5.1237,1.6564 -13.4856,3.1908 -25.0682,4.6033 1.3414,-3.9398 2.291,-7.799 2.8416,-11.5761 l 0.599,-1.1978 h -0.599 c 0,-0.03 -0.01,-0.058 -0.01,-0.087 0.6035,-2.0997 1.1646,-4.2054 1.6721,-6.319 1.6976,-6.656 3.0033,-11.781 3.9172,-15.3753 1.0446,-3.7274 1.8275,-6.6561 2.3497,-8.7861 0.5223,-2.2629 1.11,-4.4593 1.7627,-6.5892 1.6973,-1.1981 2.872,-3.1285 3.5248,-5.7909 z m 248.8644,8.2868 c -1.9256,0 -3.9981,0.4324 -6.2177,1.2976 -4.4389,1.5975 -8.7474,4.1933 -12.9251,7.7877 -4.1781,3.5942 -7.8989,7.7214 -11.1628,12.3806 -3.2639,4.6592 -5.3528,9.185 -6.2667,13.578 -0.9141,4.393 -0.3267,8.1869 1.7622,11.3817 2.2195,3.195 6.6585,5.1254 13.317,5.7909 10.5751,0.9319 23.6963,-0.8653 39.3633,-5.3914 2.2196,-1.1981 3.0031,-2.7957 2.3503,-4.7925 -0.6527,-2.1299 -2.1539,-3.0614 -4.504,-2.7951 -6.7892,2.2629 -14.2311,3.9269 -22.3258,4.9919 -11.2281,1.5974 -18.4742,0.865 -21.7381,-2.1968 -3.5253,-3.0618 -1.7627,-8.6527 5.2874,-16.7731 8.4862,-1.198 14.8183,-2.7956 18.9963,-4.7925 3.0027,-1.4642 5.5488,-3.3941 7.6377,-5.7903 2.2196,-2.3962 3.3949,-4.9257 3.5253,-7.5882 0.2612,-2.7955 -0.3265,-4.7259 -1.7626,-5.7909 -1.632,-0.8652 -3.4108,-1.2976 -5.3367,-1.2976 z m -85.3916,4.2277 c -0.6834,0.01 -1.392,0.099 -2.1265,0.2651 -2.2195,0.3994 -4.4391,0.6658 -6.6585,0.7989 -4.4389,0.2662 -8.9434,2.8621 -13.5128,7.7877 -6.3976,7.0553 -12.5335,15.1754 -18.4089,24.3607 0,-2.1299 0.1307,-4.5263 0.3919,-7.1887 1.3054,-10.7828 0.9789,-18.3705 -0.9793,-22.7634 -1.5668,-2.13 -3.3946,-2.6624 -5.4834,-1.5974 -0.1305,0 -0.7181,0.3329 -1.7627,0.9984 -0.9139,0.6657 -1.2398,1.7304 -0.9787,3.1947 0.1304,1.4643 0.7829,2.5295 1.9579,3.1951 0.3916,1.8637 0.457,4.2595 0.1958,7.1882 -0.2609,2.9287 -0.5874,7.3886 -0.9792,13.379 -0.1191,2.67 -0.032,5.158 0.2558,7.4683 -4.8601,0.8605 -8.4727,1.1021 -10.8246,0.7183 -3.2639,-0.6656 -5.157,-2.2627 -5.6793,-4.7919 -0.5223,-2.5294 -0.1309,-5.7909 1.1748,-9.7844 1.4359,-3.9936 2.8072,-8.4535 4.1127,-13.3791 0.2611,-1.5974 -0.065,-2.7953 -0.9793,-3.5941 -0.9138,-0.9318 -2.0238,-1.2645 -3.3295,-0.9984 -1.175,0.1331 -2.1539,0.5328 -2.9371,1.1984 -0.7834,0.5325 -1.6322,1.1312 -2.5461,1.7968 0.9139,-2.9287 0.2614,-5.125 -1.9582,-6.5893 -1.0443,-0.6656 -2.3503,-0.932 -3.9169,-0.7989 -1.5668,0.1332 -3.9822,1.1984 -7.2461,3.1952 -3.1335,1.9968 -6.6583,4.8586 -10.5751,8.586 -3.7862,3.7274 -6.4628,6.5229 -8.0296,8.3866 -1.4359,1.8638 -2.676,3.8609 -3.7206,5.9909 -1.0446,2.1299 -1.6322,4.4595 -1.7626,6.9887 -0.1305,2.3962 0.5876,4.2596 2.1542,5.5908 1.5669,1.3312 3.3946,2.0636 5.4835,2.1968 2.2196,0.1331 4.4389,-0.1333 6.6585,-0.7989 2.35,-0.6656 3.982,-1.398 4.8958,-2.1968 1.0446,-0.9318 2.1545,-1.9302 3.3296,-2.9952 1.175,-1.1981 3.1331,-3.328 5.875,-6.3897 2.7416,-3.0618 5.0919,-5.591 7.0504,-7.5877 -1.9585,7.4547 -2.1545,12.9795 -0.5877,16.5737 1.0443,2.2631 2.7416,4.0602 5.0917,5.3914 2.4804,1.4642 6.0055,2.1298 10.5751,1.9968 3.3039,0 6.608,-0.2973 9.9121,-0.8894 1.6137,1.4494 3.3994,1.6127 5.3573,0.4899 2.7416,-2.7955 5.2223,-5.9907 7.4419,-9.585 2.2193,-3.7273 4.5043,-7.3211 6.8543,-10.7822 2.35,-3.5944 4.9612,-6.8559 7.8335,-9.7845 2.8723,-2.9286 6.332,-4.9921 10.3794,-6.1903 7.0501,-2.263 11.3585,-0.7323 12.9251,4.5925 0.653,2.3962 0.7181,5.1917 0.1961,8.3866 -0.5223,3.0618 -1.5018,6.1237 -2.9379,9.1855 -1.3055,2.9286 -3.0028,5.5909 -5.0917,7.9871 -1.9584,2.263 -4.1127,3.8606 -6.4627,4.7924 -2.35,0.9319 -3.1983,2.5295 -2.5456,4.7925 0.2612,0.9319 0.7829,1.6637 1.5664,2.1963 0.9138,0.5324 1.9587,0.5994 3.1337,0.2 1.175,-0.2663 2.3498,-0.5328 3.5248,-0.799 3.2639,-0.6656 6.9852,-4.659 11.163,-11.9806 2.4807,-4.2599 4.1778,-8.7862 5.0919,-13.5785 2.2193,-11.049 -0.5879,-18.9695 -8.4214,-23.7619 -1.2565,-0.7322 -2.6368,-1.0869 -4.1402,-1.064 z m 34.7493,0.04 c -1.3218,0.05 -2.4233,0.9238 -3.3046,2.621 -1.3057,4.2599 -2.3503,8.653 -3.1338,13.1791 -0.6527,4.393 -1.5012,8.786 -2.5455,13.179 v 0.1995 c -0.6527,2.6624 -1.3711,5.3915 -2.1545,8.1871 -0.6527,2.6624 -1.3057,5.3247 -1.9585,7.9871 -0.6527,2.7955 0.1307,4.5258 2.3503,5.1914 2.2196,0.6656 3.8513,-0.2659 4.8959,-2.7952 1.9582,-7.1885 3.5901,-14.3107 4.8958,-21.3661 1.4362,-7.1885 3.1338,-14.3772 5.0922,-21.5656 0.2611,-2.3962 -0.653,-3.9268 -2.7421,-4.5925 -0.4895,-0.1664 -0.9547,-0.2414 -1.3952,-0.2248 z m 48.9289,4.0189 c -2.4807,3.328 -6.332,5.7907 -11.5544,7.3882 5.3528,-4.393 9.2044,-6.8557 11.5544,-7.3882 z m -164.7214,8.9855 c 0.7834,1.065 1.8934,1.6642 3.3295,1.7973 1.3057,-0.2663 2.3498,-0.5327 3.1332,-0.7989 -1.9582,2.1299 -3.8513,4.5263 -5.6793,7.1887 -6.7889,9.5847 -12.7944,13.6449 -18.0168,12.1806 1.1748,-4.1268 3.5251,-7.8542 7.0501,-11.1822 3.5251,-3.4612 6.9194,-6.5231 10.1833,-9.1855 z m -227.5928,22.5304 c -0.6739,0 -1.3103,0.1496 -1.9094,0.4491 -0.7987,0.2662 -1.398,0.7986 -1.7973,1.5973 -0.2663,0.7987 -0.5991,1.9303 -0.9984,3.3946 -0.3994,1.4643 -0.4657,2.4627 -0.1995,2.9952 -0.7987,3.8605 -2.0635,8.4531 -3.794,13.7779 -1.5975,5.3249 -2.7291,10.3835 -3.3947,15.1759 -5.9904,1.4643 -10.2503,2.6628 -12.7796,3.5946 -2.263,0.9318 -3.0618,2.5289 -2.3962,4.7919 0.6656,2.2631 2.3296,3.1288 4.992,2.5963 3.328,-0.9318 6.1904,-1.7307 8.5865,-2.3963 -1.3312,7.1885 -2.8619,14.2439 -4.5925,21.1662 -1.5974,6.7892 -3.9938,13.5781 -7.1887,20.3672 -0.5325,2.2631 0.1331,3.927 1.9968,4.992 1.8637,1.065 3.5945,0.5326 5.1919,-1.5974 3.5943,-7.5878 6.2566,-15.2419 7.9871,-22.9629 1.8637,-7.8541 3.5276,-15.8415 4.992,-23.9619 2.3962,-0.5324 7.0557,-1.4645 13.9779,-2.7957 2.13,-0.3993 3.4611,-1.0649 3.9936,-1.9967 0.6656,-0.9319 0.9315,-1.8639 0.7984,-2.7957 -0.1331,-0.9319 -0.5991,-1.7307 -1.3978,-2.3963 -0.7988,-0.6656 -1.8635,-0.9315 -3.1947,-0.7984 l -12.5801,2.3963 0.5994,-2.3963 c 1.065,-4.6592 2.1961,-9.3187 3.3941,-13.9779 1.3312,-4.6592 2.3965,-9.3846 3.1952,-14.1769 l 0.3995,-0.799 h -0.2 c 0,-2.263 -0.9984,-3.661 -2.9952,-4.1935 -0.233,-0.033 -0.4616,-0.05 -0.6863,-0.05 z m 360.4374,10.7275 c -1.3046,0.02 -2.3897,0.7875 -3.2551,2.3017 -0.9316,1.7305 -1.7307,3.5276 -2.3961,5.3914 -0.5326,1.7305 -1.198,3.5276 -1.9968,5.3914 -1.0649,1.5974 -2.0635,3.5273 -2.9951,5.7903 -3.8605,6.1236 -7.8541,12.8461 -11.9808,20.1678 -4.1268,7.3216 -8.5196,14.7103 -13.1789,22.165 -0.7988,1.3313 -1.5976,2.6624 -2.3964,3.9936 -0.7987,1.3312 -1.4642,2.3959 -1.9968,3.1946 -0.9318,0.1332 -1.7306,0.666 -2.396,1.5979 -0.7988,0.7986 -0.9322,2.1298 -0.3996,3.9935 1.065,2.13 2.862,2.9951 5.3914,2.5957 2.3961,-0.7987 4.6594,-3.1282 6.7893,-6.9887 0.7987,-1.5975 1.5975,-3.195 2.3963,-4.7925 0.7985,-1.5974 1.5311,-2.9285 2.1966,-3.9935 1.8637,-2.9287 3.2612,-5.2582 4.1931,-6.9887 -1.8638,11.1821 -1.1981,21.033 1.9968,29.5527 1.198,2.6624 2.9289,3.4607 5.1919,2.3957 2.3961,-1.0649 3.1282,-2.8616 2.1963,-5.3909 -1.4645,-3.9937 -2.3296,-8.2535 -2.5958,-12.7796 -0.5324,-13.312 3.1951,-27.9556 11.1823,-43.9301 l 1.5973,-3.1946 c 0.5324,-0.9319 0.9316,-1.7307 1.1978,-2.3963 0.3995,-0.6656 0.7321,-1.3312 0.9985,-1.9968 2.7956,-4.6591 4.3932,-8.919 4.7924,-12.7795 -0.6657,-1.8637 -1.8634,-2.9289 -3.5941,-3.1952 -0.3244,-0.075 -0.6374,-0.1096 -0.9385,-0.1049 z m -411.8802,11.4866 c -3.328,0.2663 -6.9223,0.4664 -10.7828,0.5995 -15.0427,0.5325 -25.4259,3.9267 -31.1501,10.1834 -0.5324,0.7987 -0.9321,2.0635 -1.1983,3.794 -0.1332,0.7988 -0.3327,1.7971 -0.5989,2.9952 -0.2663,1.1981 0.333,2.5292 1.7972,3.9936 3.8606,2.6624 13.179,6.3236 27.9554,10.9827 13.0459,4.2599 20.3671,7.721 21.9646,10.3834 -2.9287,5.7242 -10.3831,8.6529 -22.364,8.786 -4.9255,-0.1331 -9.8509,-0.3996 -14.7764,-0.7989 -4.9254,-0.5325 -9.0521,-0.7989 -12.3801,-0.7989 -0.7987,-0.5325 -1.6644,-0.7984 -2.5962,-0.7984 -0.9319,0 -1.9302,0.466 -2.9952,1.3978 -0.9318,0.7988 -0.9982,2.3959 -0.1994,4.792 0.7986,1.4643 3.2613,2.4631 7.3881,2.9957 1.5974,0.2662 3.1282,0.3989 4.5925,0.3989 1.4643,0 2.5959,0.067 3.3946,0.2 11.5815,0.9319 20.8332,0.7323 27.7554,-0.5989 11.8478,-2.2631 18.7036,-7.2554 20.5673,-14.9764 0.6656,-3.1949 -0.7988,-6.19 -4.393,-8.9855 -1.4644,-1.198 -2.9951,-2.1964 -4.5925,-2.9951 -1.7306,-0.7988 -3.661,-1.5975 -5.7909,-2.3963 -2.1299,-0.7986 -4.8586,-1.5975 -8.1866,-2.3962 -3.328,-0.9319 -7.9875,-2.263 -13.9779,-3.9936 -5.9904,-1.7306 -10.9159,-3.7941 -14.7764,-6.1903 0.1331,-0.1331 0.2,-0.3327 0.2,-0.5989 5.4579,-3.328 11.0489,-5.5248 16.7731,-6.5898 2.6624,-0.5325 5.3911,-0.7984 8.1866,-0.7984 2.7955,-0.1331 6.1239,-0.3327 9.9844,-0.5989 2.3962,-0.3994 3.5941,-1.6642 3.5941,-3.7941 0,-1.8637 -1.1315,-3.2617 -3.3946,-4.1936 z m 509.3922,5.6963 c -5.4309,0.072 -10.9019,2.4993 -16.414,7.2833 l -0.599,1.1979 c -3.3279,2.5292 -6.523,6.7891 -9.5848,12.7795 -1.3314,2.2631 -2.3961,4.7927 -3.1948,7.5882 -1.065,2.6625 -1.9969,5.0583 -2.7956,7.1882 -1.5973,4.2599 -0.7985,8.5197 2.3963,12.7796 3.1948,4.2599 6.9887,6.057 11.3816,5.3914 7.8541,-0.9318 14.3102,-2.6621 19.3688,-5.1914 6.9223,-3.328 11.8478,-7.7211 14.7765,-13.1791 4.5259,-8.1204 5.458,-15.7749 2.7955,-22.9634 -1.0649,-3.0618 -2.795,-5.6577 -5.1913,-7.7876 -2.3961,-2.2631 -5.1922,-3.7938 -8.3871,-4.5925 -1.5142,-0.3495 -3.0316,-0.5141 -4.5521,-0.4941 z m -399.5488,4.9868 c -1.9635,0 -4.0771,0.4328 -6.3402,1.2981 -4.526,1.5975 -8.9186,4.1935 -13.1785,7.7877 -4.2599,3.5942 -8.0542,7.7208 -11.3822,12.3801 -3.3281,4.6592 -5.458,9.1855 -6.3898,13.5785 -0.9319,4.3929 -0.3327,8.1868 1.7973,11.3817 2.263,3.1949 6.7894,5.1248 13.5785,5.7904 10.7828,0.9318 24.161,-0.8653 40.1355,-5.3914 2.2631,-1.1981 3.0618,-2.7952 2.3963,-4.792 -0.6657,-2.1299 -2.1963,-3.062 -4.5925,-2.7957 -6.9223,2.263 -14.51,3.9269 -22.7635,4.9919 -11.4484,1.5975 -18.8371,0.8656 -22.1651,-2.1962 -3.5942,-3.0618 -1.7971,-8.6528 5.3914,-16.7731 8.6528,-1.1981 15.1095,-2.7957 19.3694,-4.7925 3.0618,-1.4643 5.6577,-3.3947 7.7876,-5.7909 2.2631,-2.3962 3.4611,-4.9252 3.5941,-7.5876 0.2663,-2.7955 -0.333,-4.7259 -1.7973,-5.7909 -1.664,-0.8653 -3.4775,-1.2981 -5.441,-1.2981 z m 241.411,0 c -1.9635,0 -4.077,0.4328 -6.3399,1.2981 -4.5263,1.5975 -8.9189,4.1935 -13.1787,7.7877 -4.2598,3.5942 -8.0536,7.7208 -11.3818,12.3801 -3.3279,4.6592 -5.4578,9.1855 -6.3897,13.5785 -0.9319,4.3929 -0.3331,8.1868 1.7968,11.3817 2.263,3.1949 6.7895,5.1248 13.5784,5.7904 10.7828,0.9318 24.1618,-0.8653 40.1362,-5.3914 2.263,-1.1981 3.0613,-2.7952 2.3956,-4.792 -0.6654,-2.1299 -2.1963,-3.062 -4.5924,-2.7957 -6.9223,2.263 -14.51,3.9269 -22.7634,4.9919 -11.4485,1.5975 -18.8365,0.8656 -22.1647,-2.1962 -3.5941,-3.0618 -1.797,-8.6528 5.3914,-16.7731 8.6529,-1.1981 15.109,-2.7957 19.3688,-4.7925 3.0618,-1.4643 5.6579,-3.3947 7.7878,-5.7909 2.263,-2.3962 3.461,-4.9252 3.5941,-7.5876 0.2662,-2.7955 -0.3331,-4.7259 -1.7973,-5.7909 -1.664,-0.8653 -3.4774,-1.2981 -5.4412,-1.2981 z m 159.1895,2.943 c 2.6498,-0.01 4.9482,0.9094 6.895,2.7481 2.3961,2.263 3.5947,5.6573 3.5947,10.1834 0,4.5261 -0.9983,8.2536 -2.9951,11.1822 -1.9968,2.7956 -4.5265,5.2583 -7.5883,7.3882 -2.9286,2.13 -6.1902,3.7939 -9.7843,4.992 -3.4612,1.1981 -6.1899,1.7309 -8.1867,1.5978 -1.8637,-0.1331 -3.1954,-0.3996 -3.9942,-0.7989 -0.7985,-0.5325 -1.5967,-0.9316 -2.3955,-1.1979 -0.2664,-1.0649 -0.6659,-2.0633 -1.1986,-2.9951 -0.3992,-1.065 -0.4656,-2.1302 -0.1992,-3.1952 0.9319,-5.1917 3.1949,-10.5831 6.7892,-16.1742 4.1267,-6.3898 8.7194,-9.9172 13.7779,-10.5828 1.7307,-0.3993 2.8618,-1.3982 3.3941,-2.9957 0.649,-0.1 1.2793,-0.1503 1.891,-0.1519 z m -218.9562,1.2846 c -0.6969,0.01 -1.4195,0.099 -2.1685,0.2652 -2.263,0.3993 -4.526,0.6657 -6.7892,0.7989 -4.526,0.2662 -9.1186,2.8622 -13.778,7.7876 -6.5227,7.0554 -12.7793,15.1755 -18.7698,24.3608 0,-2.1299 0.1326,-4.5258 0.399,-7.1882 1.3311,-10.7827 0.9983,-18.371 -0.9985,-22.764 -1.5976,-2.1299 -3.461,-2.6622 -5.5909,-1.5973 -0.1331,0 -0.7324,0.3328 -1.7973,0.9984 -0.9319,0.6657 -1.2647,1.7309 -0.9983,3.1951 0.1331,1.4644 0.7988,2.5291 1.9968,3.1947 0.3993,1.8637 0.4662,4.26 0.2,7.1887 -0.2664,2.9286 -0.5993,7.3881 -0.9985,13.3785 -0.1215,2.6699 -0.033,5.1579 0.2603,7.4683 -4.9551,0.8604 -8.6389,1.1025 -11.0368,0.7188 -3.3282,-0.6656 -5.2586,-2.2632 -5.7909,-4.7925 -0.5326,-2.5293 -0.1329,-5.7908 1.1983,-9.7844 1.4644,-3.9936 2.862,-8.453 4.1931,-13.3785 0.2662,-1.5975 -0.067,-2.7959 -0.9986,-3.5946 -0.9318,-0.9319 -2.0632,-1.2647 -3.3946,-0.9984 -1.198,0.1331 -2.1963,0.5328 -2.995,1.1984 -0.7988,0.5325 -1.6637,1.1317 -2.5956,1.7973 0.9319,-2.9287 0.2662,-5.1255 -1.9968,-6.5898 -1.065,-0.6656 -2.3961,-0.932 -3.9936,-0.7989 -1.5976,0.1331 -4.0609,1.1984 -7.3888,3.1951 -3.1948,1.9968 -6.7887,4.8587 -10.7823,8.5861 -3.8605,3.7274 -6.5897,6.5234 -8.187,8.3871 -1.4645,1.8636 -2.7292,3.8604 -3.7941,5.9903 -1.065,2.1299 -1.6642,4.4594 -1.7973,6.9887 -0.1331,2.3962 0.5992,4.2597 2.1968,5.5909 1.5973,1.3312 3.4608,2.0636 5.5909,2.1968 2.263,0.1331 4.5262,-0.1334 6.7892,-0.799 2.3961,-0.6656 4.0601,-1.3975 4.9919,-2.1962 1.065,-0.9319 2.1966,-1.9302 3.3946,-2.9952 1.1981,-1.198 3.1949,-3.3279 5.9905,-6.3898 2.7953,-3.0618 5.1919,-5.5913 7.1887,-7.5881 -1.9968,7.4548 -2.1966,12.9794 -0.599,16.5736 1.0649,2.2631 2.795,4.0602 5.1914,5.3914 2.5291,1.4644 6.1235,2.1299 10.7828,1.9968 3.3689,0 6.7379,-0.2973 10.1068,-0.8893 1.6454,1.4494 3.466,1.6127 5.4623,0.4899 2.7953,-2.7956 5.3245,-5.9902 7.5875,-9.5845 2.2632,-3.7274 4.5931,-7.3217 6.9892,-10.7828 2.3963,-3.5943 5.0586,-6.8558 7.9873,-9.7844 2.9286,-2.9287 6.4561,-4.9922 10.5828,-6.1903 7.1884,-2.263 11.5816,-0.7318 13.1789,4.593 0.6657,2.3962 0.7326,5.1917 0.2,8.3866 -0.5324,3.0618 -1.5309,6.1232 -2.9951,9.1849 -1.3314,2.9287 -3.062,5.5915 -5.1919,7.9877 -1.9968,2.2629 -4.1931,3.86 -6.5892,4.7919 -2.3963,0.9319 -3.2618,2.5294 -2.5964,4.7925 0.2665,0.9318 0.7991,1.6638 1.5979,2.1962 0.9318,0.5326 1.9965,0.5994 3.1945,0.2 1.1983,-0.2662 2.3961,-0.5326 3.5941,-0.7989 3.3282,-0.6656 7.1221,-4.659 11.3819,-11.9807 2.5294,-4.2598 4.26,-8.7861 5.1919,-13.5785 2.263,-11.049 -0.5987,-18.9695 -8.586,-23.7618 -1.2814,-0.7322 -2.6884,-1.0869 -4.2214,-1.0641 z m -183.3915,4.0592 c -2.5292,3.328 -6.4563,5.7908 -11.7812,7.3882 5.458,-4.393 9.385,-6.8557 11.7812,-7.3882 z m 241.4112,0 c -2.5294,3.328 -6.4564,5.7908 -11.7811,7.3882 5.4578,-4.393 9.3847,-6.8557 11.7811,-7.3882 z m -140.6536,8.9855 c 0.7988,1.065 1.9304,1.6642 3.3946,1.7973 1.3314,-0.2662 2.3961,-0.5327 3.1949,-0.7989 -1.9971,2.13 -3.9267,4.5263 -5.7904,7.1887 -6.9223,9.5847 -13.0461,13.645 -18.3711,12.1807 1.198,-4.1268 3.5946,-7.8543 7.1887,-11.1823 3.5944,-3.4611 7.0554,-6.5231 10.3833,-9.1855 z"
         style="font-style:normal;font-variant:normal;font-weight:normal;font-stretch:normal;font-size:197.75016785px;line-height:1.25;font-family:Karumbi;-inkscape-font-specification:'Karumbi, Normal';font-variant-ligatures:normal;font-variant-caps:normal;font-variant-numeric:normal;font-feature-settings:normal;text-align:start;letter-spacing:0px;word-spacing:0px;writing-mode:lr-tb;text-anchor:start;fill:#000000;fill-opacity:1;stroke:none;stroke-width:4.94375467"
         inkscape:connector-curvature="0" />
      <path
         inkscape:connector-curvature="0"
         id="path1698"
         d="m 3249.9833,1709.6907 c -40.6679,-0.043 -93.237,0.4844 -160.1091,1.6986 -34.8179,1.0902 -69.9265,2.6247 -69.9265,2.6247 0,0 0,0 0,0 214.4284,-1.3434 308.0217,2.2718 339.119,8.0269 4.3505,0.9542 0.9861,2.0842 -0.042,2.3818 -21.8726,5.6794 -60.7542,12.115 -81.9472,17.6062 v 0 c 0,0 -0.033,0.01 -0.034,0.01 -5.744,1.4894 -10.1859,2.9096 -12.6256,4.2256 -2.2002,0.9145 -4.0993,1.8696 -5.057,2.7507 -3.3073,3.0428 -0.592,9.446 4.4586,10.2847 0.01,0 0.012,0 0.017,0 16.0509,4.2669 124.3251,2.5528 460.1369,-11.6737 -261.5952,7.7712 -384.9992,8.6533 -434.1746,5.7811 -0.04,-0.01 -8.5644,-1.8905 -2.1074,-3.2856 24.4958,-5.095 59.705,-11.2663 75.6782,-17.0708 v 0 c 0.01,0 13.5866,-3.7517 18.2626,-11.2335 4.6773,-7.4835 -20.9601,-8.7436 -20.9601,-8.7436 v 0 c -17.2169,-2.0641 -51.4207,-3.3255 -110.6835,-3.3874 z"
         style="fill:#000000;stroke:none;stroke-width:0.43464541px;stroke-linecap:butt;stroke-linejoin:miter;stroke-opacity:1" />
    </g>
  </g>
</svg>
